# xmcd CD database file
#
# Track frame offsets:
#	150
#	19850
#	43175
#
# Disc length: 833 seconds
#
# Revision: 2
# Processed by: cddbd v1.5PL3 Copyright (c) Steve Scherf et al.
# Submitted via: CDex 1.51
#
DISCID=1f033f03
DTITLE=Laputa - Breath
DYEAR=1999
DGENRE=Rock
TTITLE0=Breath
TTITLE1=Beautiful Place
TTITLE2=Breath  instrumental
EXTD=YEAR: 1999
EXTT0=
EXTT1=
EXTT2=
PLAYORDER=
